Genre:Drama 
Language:English
IMDb:http://www.imdb.com/title/tt1222698/
Source:BluRay.x264-aAF


Format : MPEG-4
Format profile : Base Media
Codec ID : isom
File size : 1.79 GiB
Duration : 1h 32mn
Overall bit rate : 2 763 Kbps
Movie name : Beneath.the.Blue.2010.720p.BRRip.H264.Feel-Free


Video
Format settings, CABAC : Yes
Format settings, ReFrames : 4 frames
Codec ID : avc1
Codec ID/Info : Advanced Video Coding
Duration : 1h 32mn
Bit rate mode : Variable
Bit rate : 2 400 Kbps
Width : 1 280 pixels
Height : 720 pixels
Display aspect ratio : 16:9
Frame rate mode : Constant
Frame rate : 23.976 fps
Color space : YUV
Chroma subsampling : 4:2:0
Bit depth : 8 bits
Scan type : Progressive
Bits/(Pixel*Frame) : 0.109
Stream size : 1.53 GiB (86%)
Writing library : x264 

Audio
ID : 2
Format : AAC
Format/Info : Advanced Audio Codec
Format version : Version 4
Format profile : LC
Codec ID : 40
Duration : 1h 32mn
Bit rate mode : Variable
Bit rate : 384 Kbps
Channel(s) : 6 channels
Channel positions : Front: L C R, Side: L R, LFE
Sampling rate : 48.0 KHz
Stream size : 254 MiB (14%)



Plot:
Dolphin experts confront the US Navy when its sonar program is suspected of causing the animals' deaths






================================== 
http://thepiratebay.org/user/hiest
==================================






Screenshots:
 
http://www.rapidhdd.com/images/646511vlcsnap-2010-12-26-09h44m11s54.png
 
http://www.rapidhdd.com/images/344468vlcsnap-2010-12-26-09h45m26s17.png
 
http://www.rapidhdd.com/images/4279vlcsnap-2010-12-26-09h45m58s0.png
 
http://www.rapidhdd.com/images/551733vlcsnap-2010-12-26-09h46m27s124.png
 
http://www.rapidhdd.com/images/184054vlcsnap-2010-12-26-09h47m44s133.png